<svg t="1575960954214" class="icon" viewBox="0 0 1024 1024" version="1.1" xmlns="http://www.w3.org/2000/svg" p-id="9234" width="200" height="200"><path d="M879.656 855.88 137.288 855.88c-11.048 0-20 8.952-20 20s8.952 20 20 20l742.368 0c11.048 0 20-8.952 20-20S890.704 855.88 879.656 855.88zM166.592 798.16c1.832 0 3.68-0.248 5.496-0.768l123.072-35.152c3.272-0.936 6.248-2.688 8.648-5.096l386.816-386.808c7.816-7.808 7.816-20.472 0-28.28-7.816-7.816-20.472-7.816-28.28 0L327.76 676.624l-64.976-64.984c-2.304-2.304-5.048-3.84-7.952-4.792l327.352-327.352c7.816-7.808 7.816-20.472 0-28.28-7.816-7.816-20.472-7.816-28.28 0L170.032 635.088c-3.096 3.088-5.088 7.112-5.672 11.44l-17.584 128.928c-0.912 6.696 1.616 13.392 6.72 17.824C157.176 796.464 161.84 798.16 166.592 798.16zM203.08 658.6l26.632-26.624c0.944 2.896 2.488 5.64 4.784 7.944l64.984 64.992-20.288 20.288-88.64 25.312L203.08 658.6zM700.792 329.376c3.84 3.552 8.712 5.312 13.56 5.312 5.384 0 10.752-2.16 14.696-6.424l70.584-76.368c3.6-3.896 5.504-9.064 5.296-14.36s-2.512-10.304-6.416-13.904L701.56 134.064c-8.112-7.496-20.776-6.992-28.256 1.12l-70.56 76.368c-7.504 8.112-7 20.768 1.12 28.264L700.792 329.376zM689.112 177.016l67.568 62.416-43.44 46.992-67.544-62.424L689.112 177.016z" p-id="9235" fill="#1296db"></path></svg>
