<svg t="1575959886483" class="icon" viewBox="0 0 1024 1024" version="1.1" xmlns="http://www.w3.org/2000/svg" p-id="6606" width="200" height="200"><path d="M512 192C335.264 192 192 335.264 192 512c0 176.736 143.264 320 320 320s320-143.264 320-320C832 335.264 688.736 192 512 192zM512 800c-159.072 0-288-128.928-288-288 0-159.072 128.928-288 288-288s288 128.928 288 288C800 671.072 671.072 800 512 800z" p-id="6607" fill="#1296db"></path><path d="M512 512m-208 0a6.5 6.5 0 1 0 416 0 6.5 6.5 0 1 0-416 0Z" p-id="6608" fill="#1296db"></path></svg>
