<svg t="1575690656249" class="icon" viewBox="0 0 1024 1024" version="1.1" xmlns="http://www.w3.org/2000/svg" p-id="537" width="200" height="200"><path d="M689.066667 311.466667v-49.066667c0-4.266667-4.266667-8.533333-8.533334-8.533333h-384c-4.266667 0-8.533333 4.266667-8.533333 8.533333v49.066667c0 4.266667 4.266667 8.533333 8.533333 8.533333h384c4.266667 0 8.533333-4.266667 8.533334-8.533333zM296.533333 401.066667c-4.266667 0-8.533333 4.266667-8.533333 8.533333v49.066667c0 4.266667 4.266667 8.533333 8.533333 8.533333h183.466667c4.266667 0 8.533333-4.266667 8.533333-8.533333v-49.066667c0-4.266667-4.266667-8.533333-8.533333-8.533333h-183.466667z" p-id="538"></path><path d="M439.466667 851.2H209.066667v-704H768V490.666667c0 4.266667 4.266667 8.533333 8.533333 8.533333H832c4.266667 0 8.533333-4.266667 8.533333-8.533333V106.666667c0-17.066667-14.933333-32-32-32h-640c-19.2 2.133333-32 14.933333-32 34.133333v785.066667c0 17.066667 14.933333 32 32 32h273.066667c4.266667 0 8.533333-4.266667 8.533333-8.533334v-55.466666c-2.133333-6.4-6.4-10.666667-10.666666-10.666667z" p-id="539"></path><path d="M885.333333 904.533333L791.466667 810.666667c21.333333-29.866667 36.266667-66.133333 36.266666-106.666667 0-98.133333-78.933333-177.066667-177.066666-177.066667s-177.066667 78.933333-177.066667 177.066667 78.933333 177.066667 177.066667 177.066667c36.266667 0 68.266667-10.666667 96-29.866667l93.866666 93.866667c2.133333 2.133333 4.266667 2.133333 6.4 2.133333s4.266667 0 6.4-2.133333l32-32c4.266667-2.133333 4.266667-6.4 0-8.533334z m-232.533333-87.466666c-61.866667 0-113.066667-49.066667-113.066667-113.066667s49.066667-113.066667 113.066667-113.066667 113.066667 49.066667 113.066667 113.066667-51.2 113.066667-113.066667 113.066667z" p-id="540"></path></svg>
